<svg xmlns="http://www.w3.org/2000/svg" width="500" zoomAndPan="magnify" viewBox="0 0 375 374.999991" height="500" preserveAspectRatio="xMidYMid meet" version="1.0" class="w-10 h-10 me-2">
    <defs>
        <g></g>
        <clipPath id="944b52d580">
            <rect x="0" width="196" y="0" height="302"></rect>
        </clipPath>
        <clipPath id="aa01077359">
            <rect x="0" width="184" y="0" height="114"></rect>
        </clipPath>
        <clipPath id="d4433d3ea2">
            <path d="M 262.28125 0 L 331.058594 0 L 331.058594 68.777344 L 262.28125 68.777344 Z M 262.28125 0 " clip-rule="nonzero"></path>
        </clipPath>
        <clipPath id="fe717681bd">
            <path d="M 0.28125 0 L 69.058594 0 L 69.058594 68.777344 L 0.28125 68.777344 Z M 0.28125 0 " clip-rule="nonzero"></path>
        </clipPath>
        <clipPath id="8dc233c33e">
            <rect x="0" width="70" y="0" height="69"></rect>
        </clipPath>
        <clipPath id="839e53e795">
            <path d="M 0 94.300781 L 68.777344 94.300781 L 68.777344 163.078125 L 0 163.078125 Z M 0 94.300781 " clip-rule="nonzero"></path>
        </clipPath>
        <clipPath id="d3b0a8fd12">
            <path d="M 0 0.300781 L 68.777344 0.300781 L 68.777344 69.078125 L 0 69.078125 Z M 0 0.300781 " clip-rule="nonzero"></path>
        </clipPath>
        <clipPath id="e644d15fc4">
            <rect x="0" width="69" y="0" height="70"></rect>
        </clipPath>
        <clipPath id="44d5362545">
            <path d="M 0 191.519531 L 68.777344 191.519531 L 68.777344 260.296875 L 0 260.296875 Z M 0 191.519531 " clip-rule="nonzero"></path>
        </clipPath>
        <clipPath id="bbfef14976">
            <path d="M 0 0.519531 L 68.777344 0.519531 L 68.777344 69.296875 L 0 69.296875 Z M 0 0.519531 " clip-rule="nonzero"></path>
        </clipPath>
        <clipPath id="b90a1c7d92">
            <rect x="0" width="69" y="0" height="70"></rect>
        </clipPath>
        <clipPath id="bbdd4f7743">
            <path d="M 0 288.738281 L 68.777344 288.738281 L 68.777344 357.515625 L 0 357.515625 Z M 0 288.738281 " clip-rule="nonzero"></path>
        </clipPath>
        <clipPath id="3ee4d67022">
            <path d="M 0 0.738281 L 68.777344 0.738281 L 68.777344 69.515625 L 0 69.515625 Z M 0 0.738281 " clip-rule="nonzero"></path>
        </clipPath>
        <clipPath id="4aa37d91f1">
            <rect x="0" width="69" y="0" height="70"></rect>
        </clipPath>
        <clipPath id="1cefdaf6cc">
            <path d="M 102.222656 290.242188 L 171 290.242188 L 171 359.019531 L 102.222656 359.019531 Z M 102.222656 290.242188 " clip-rule="nonzero"></path>
        </clipPath>
        <clipPath id="130d7221e0">
            <path d="M 0.222656 0.242188 L 69 0.242188 L 69 69.019531 L 0.222656 69.019531 Z M 0.222656 0.242188 " clip-rule="nonzero"></path>
        </clipPath>
        <clipPath id="444af984ea">
            <rect x="0" width="69" y="0" height="70"></rect>
        </clipPath>
        <clipPath id="e36e71dc9a">
            <path d="M 167.003906 0 L 235.78125 0 L 235.78125 68.777344 L 167.003906 68.777344 Z M 167.003906 0 " clip-rule="nonzero"></path>
        </clipPath>
        <clipPath id="2543a0a515">
            <path d="M 0.00390625 0 L 68.78125 0 L 68.78125 68.777344 L 0.00390625 68.777344 Z M 0.00390625 0 " clip-rule="nonzero"></path>
        </clipPath>
        <clipPath id="350795cfcd">
            <rect x="0" width="69" y="0" height="69"></rect>
        </clipPath>
        <clipPath id="2c65010443">
            <path d="M 262.28125 91.300781 L 331.058594 91.300781 L 331.058594 160.078125 L 262.28125 160.078125 Z M 262.28125 91.300781 " clip-rule="nonzero"></path>
        </clipPath>
        <clipPath id="c1124310ce">
            <path d="M 0.28125 0.300781 L 69.058594 0.300781 L 69.058594 69.078125 L 0.28125 69.078125 Z M 0.28125 0.300781 " clip-rule="nonzero"></path>
        </clipPath>
        <clipPath id="67380b618d">
            <rect x="0" width="70" y="0" height="70"></rect>
        </clipPath>
    </defs>
    <g transform="matrix(1, 0, 0, 1, 70, 23)">
        <g clip-path="url(#944b52d580)">
            <g fill="#545454" fill-opacity="1">
                <g transform="translate(0.104492, 240.573006)">
                    <g>
                        <path d="M 118.921875 -166.828125 C 128.453125 -166.828125 137.148438 -164.5625 145.015625 -160.03125 C 152.878906 -155.507812 159.15625 -149.394531 163.84375 -141.6875 C 168.53125 -133.976562 170.875 -125.28125 170.875 -115.59375 C 170.875 -105.738281 168.410156 -96.796875 163.484375 -88.765625 C 158.566406 -80.742188 151.9375 -74.347656 143.59375 -69.578125 C 135.25 -64.816406 126.148438 -62.4375 116.296875 -62.4375 L 60.296875 -62.4375 L 60.296875 0 L 34.5625 0 L 34.5625 -166.828125 Z M 114.875 -87.234375 C 120.113281 -87.234375 124.957031 -88.539062 129.40625 -91.15625 C 133.851562 -93.78125 137.390625 -97.238281 140.015625 -101.53125 C 142.640625 -105.820312 143.953125 -110.507812 143.953125 -115.59375 C 143.953125 -120.519531 142.640625 -124.96875 140.015625 -128.9375 C 137.390625 -132.90625 133.851562 -136.082031 129.40625 -138.46875 C 124.957031 -140.851562 120.113281 -142.046875 114.875 -142.046875 L 60.296875 -142.046875 L 60.296875 -87.234375 Z M 114.875 -87.234375 "></path>
                    </g>
                </g>
            </g>
        </g>
    </g>
    <g transform="matrix(1, 0, 0, 1, 187, 261)">
        <g clip-path="url(#aa01077359)">
            <g fill="#a6a6a6" fill-opacity="1">
                <g transform="translate(2.726064, 90.04081)">
                    <g>
                        <path d="M 41.046875 1.21875 L 5.390625 -28.828125 L 41.046875 -58.8125 L 49.296875 -50.453125 L 23.0625 -28.921875 L 49.296875 -7.140625 Z M 41.046875 1.21875 "></path>
                    </g>
                </g>
            </g>
            <g fill="#a6a6a6" fill-opacity="1">
                <g transform="translate(62.271531, 90.04081)">
                    <g>
                        <path d="M 23.859375 21.6875 L 23.859375 -86.625 L 35.75 -86.625 L 35.75 21.6875 Z M 23.859375 21.6875 "></path>
                    </g>
                </g>
            </g>
            <g fill="#a6a6a6" fill-opacity="1">
                <g transform="translate(121.816997, 90.04081)">
                    <g>
                        <path d="M 18.515625 -58.8125 L 54.15625 -28.828125 L 18.515625 1.21875 L 10.3125 -7.140625 L 36.484375 -28.71875 L 10.3125 -50.453125 Z M 18.515625 -58.8125 "></path>
                    </g>
                </g>
            </g>
        </g>
    </g>
    <g clip-path="url(#d4433d3ea2)">
        <g transform="matrix(1, 0, 0, 1, 262, 0)">
            <g clip-path="url(#8dc233c33e)">
                <g clip-path="url(#fe717681bd)">
                    <path fill="#5271ff" d="M 0.28125 0 L 69.058594 0 L 69.058594 68.777344 L 0.28125 68.777344 Z M 0.28125 0 " fill-opacity="1" fill-rule="nonzero"></path>
                </g>
            </g>
        </g>
    </g>
    <g clip-path="url(#839e53e795)">
        <g transform="matrix(1, 0, 0, 1, 0, 94)">
            <g clip-path="url(#e644d15fc4)">
                <g clip-path="url(#d3b0a8fd12)">
                    <path fill="#ff3131" d="M 0 0.300781 L 68.777344 0.300781 L 68.777344 69.078125 L 0 69.078125 Z M 0 0.300781 " fill-opacity="1" fill-rule="nonzero"></path>
                </g>
            </g>
        </g>
    </g>
    <g clip-path="url(#44d5362545)">
        <g transform="matrix(1, 0, 0, 1, 0, 191)">
            <g clip-path="url(#b90a1c7d92)">
                <g clip-path="url(#bbfef14976)">
                    <path fill="#5271ff" d="M 0 0.519531 L 68.777344 0.519531 L 68.777344 69.296875 L 0 69.296875 Z M 0 0.519531 " fill-opacity="1" fill-rule="nonzero"></path>
                </g>
            </g>
        </g>
    </g>
    <g clip-path="url(#bbdd4f7743)">
        <g transform="matrix(1, 0, 0, 1, 0, 288)">
            <g clip-path="url(#4aa37d91f1)">
                <g clip-path="url(#3ee4d67022)">
                    <path fill="#00bf63" d="M 0 0.738281 L 68.777344 0.738281 L 68.777344 69.515625 L 0 69.515625 Z M 0 0.738281 " fill-opacity="1" fill-rule="nonzero"></path>
                </g>
            </g>
        </g>
    </g>
    <g clip-path="url(#1cefdaf6cc)">
        <g transform="matrix(1, 0, 0, 1, 102, 290)">
            <g clip-path="url(#444af984ea)">
                <g clip-path="url(#130d7221e0)">
                    <path fill="#ffbd59" d="M 0.222656 0.242188 L 69 0.242188 L 69 69.019531 L 0.222656 69.019531 Z M 0.222656 0.242188 " fill-opacity="1" fill-rule="nonzero"></path>
                </g>
            </g>
        </g>
    </g>
    <g clip-path="url(#e36e71dc9a)">
        <g transform="matrix(1, 0, 0, 1, 167, 0)">
            <g clip-path="url(#350795cfcd)">
                <g clip-path="url(#2543a0a515)">
                    <path fill="#ff66c4" d="M 0.00390625 0 L 68.78125 0 L 68.78125 68.777344 L 0.00390625 68.777344 Z M 0.00390625 0 " fill-opacity="1" fill-rule="nonzero"></path>
                </g>
            </g>
        </g>
    </g>
    <g clip-path="url(#2c65010443)">
        <g transform="matrix(1, 0, 0, 1, 262, 91)">
            <g clip-path="url(#67380b618d)">
                <g clip-path="url(#c1124310ce)">
                    <path fill="#00bf63" d="M 0.28125 0.300781 L 69.058594 0.300781 L 69.058594 69.078125 L 0.28125 69.078125 Z M 0.28125 0.300781 " fill-opacity="1" fill-rule="nonzero"></path>
                </g>
            </g>
        </g>
    </g>
</svg>